<mxfile host="app.diagrams.net" agent="Mozilla/5.0 (Windows NT 10.0; Win64; x64) AppleWebKit/537.36 (KHTML, like Gecko) Chrome/140.0.0.0 Safari/537.36" version="28.2.5">
  <diagram name="Page-1" id="6Gt9gHs-IoQzA7u-jpyb">
    <mxGraphModel dx="4283" dy="512" grid="1" gridSize="10" guides="1" tooltips="1" connect="1" arrows="1" fold="1" page="1" pageScale="1" pageWidth="3300" pageHeight="4681" math="0" shadow="0">
      <root>
        <mxCell id="0" />
        <mxCell id="1" parent="0" />
        <mxCell id="vKYirCb9YRR1YGthw9EU-3" value="" style="edgeStyle=orthogonalEdgeStyle;rounded=0;orthogonalLoop=1;jettySize=auto;html=1;" edge="1" parent="1" source="vKYirCb9YRR1YGthw9EU-1" target="vKYirCb9YRR1YGthw9EU-2">
          <mxGeometry relative="1" as="geometry" />
        </mxCell>
        <mxCell id="vKYirCb9YRR1YGthw9EU-1" value="START" style="rounded=1;whiteSpace=wrap;html=1;" vertex="1" parent="1">
          <mxGeometry x="190" y="40" width="120" height="60" as="geometry" />
        </mxCell>
        <mxCell id="vKYirCb9YRR1YGthw9EU-5" value="" style="edgeStyle=orthogonalEdgeStyle;rounded=0;orthogonalLoop=1;jettySize=auto;html=1;" edge="1" parent="1" source="vKYirCb9YRR1YGthw9EU-2" target="vKYirCb9YRR1YGthw9EU-4">
          <mxGeometry relative="1" as="geometry" />
        </mxCell>
        <mxCell id="vKYirCb9YRR1YGthw9EU-2" value="int n" style="shape=parallelogram;perimeter=parallelogramPerimeter;whiteSpace=wrap;html=1;fixedSize=1;" vertex="1" parent="1">
          <mxGeometry x="190" y="170" width="120" height="60" as="geometry" />
        </mxCell>
        <mxCell id="vKYirCb9YRR1YGthw9EU-7" value="" style="edgeStyle=orthogonalEdgeStyle;rounded=0;orthogonalLoop=1;jettySize=auto;html=1;" edge="1" parent="1" source="vKYirCb9YRR1YGthw9EU-4" target="vKYirCb9YRR1YGthw9EU-6">
          <mxGeometry relative="1" as="geometry" />
        </mxCell>
        <mxCell id="vKYirCb9YRR1YGthw9EU-8" value="FALSE" style="edgeLabel;html=1;align=center;verticalAlign=middle;resizable=0;points=[];" vertex="1" connectable="0" parent="vKYirCb9YRR1YGthw9EU-7">
          <mxGeometry x="-0.4419" relative="1" as="geometry">
            <mxPoint as="offset" />
          </mxGeometry>
        </mxCell>
        <mxCell id="vKYirCb9YRR1YGthw9EU-14" value="" style="edgeStyle=orthogonalEdgeStyle;rounded=0;orthogonalLoop=1;jettySize=auto;html=1;" edge="1" parent="1" source="vKYirCb9YRR1YGthw9EU-4" target="vKYirCb9YRR1YGthw9EU-13">
          <mxGeometry relative="1" as="geometry" />
        </mxCell>
        <mxCell id="vKYirCb9YRR1YGthw9EU-36" value="TRUE" style="edgeLabel;html=1;align=center;verticalAlign=middle;resizable=0;points=[];" vertex="1" connectable="0" parent="vKYirCb9YRR1YGthw9EU-14">
          <mxGeometry x="-0.5761" y="5" relative="1" as="geometry">
            <mxPoint as="offset" />
          </mxGeometry>
        </mxCell>
        <mxCell id="vKYirCb9YRR1YGthw9EU-4" value="n % 3 == 0" style="rhombus;whiteSpace=wrap;html=1;" vertex="1" parent="1">
          <mxGeometry x="170" y="300" width="160" height="80" as="geometry" />
        </mxCell>
        <mxCell id="vKYirCb9YRR1YGthw9EU-10" value="" style="edgeStyle=orthogonalEdgeStyle;rounded=0;orthogonalLoop=1;jettySize=auto;html=1;" edge="1" parent="1" source="vKYirCb9YRR1YGthw9EU-6" target="vKYirCb9YRR1YGthw9EU-9">
          <mxGeometry relative="1" as="geometry" />
        </mxCell>
        <mxCell id="vKYirCb9YRR1YGthw9EU-37" value="FALSE" style="edgeLabel;html=1;align=center;verticalAlign=middle;resizable=0;points=[];" vertex="1" connectable="0" parent="vKYirCb9YRR1YGthw9EU-10">
          <mxGeometry x="-0.2538" y="-1" relative="1" as="geometry">
            <mxPoint as="offset" />
          </mxGeometry>
        </mxCell>
        <mxCell id="vKYirCb9YRR1YGthw9EU-12" value="" style="edgeStyle=orthogonalEdgeStyle;rounded=0;orthogonalLoop=1;jettySize=auto;html=1;" edge="1" parent="1" source="vKYirCb9YRR1YGthw9EU-6" target="vKYirCb9YRR1YGthw9EU-11">
          <mxGeometry relative="1" as="geometry" />
        </mxCell>
        <mxCell id="vKYirCb9YRR1YGthw9EU-38" value="TRUE" style="edgeLabel;html=1;align=center;verticalAlign=middle;resizable=0;points=[];" vertex="1" connectable="0" parent="vKYirCb9YRR1YGthw9EU-12">
          <mxGeometry x="-0.4094" y="-1" relative="1" as="geometry">
            <mxPoint as="offset" />
          </mxGeometry>
        </mxCell>
        <mxCell id="vKYirCb9YRR1YGthw9EU-6" value="n % 7 == 0" style="rhombus;whiteSpace=wrap;html=1;" vertex="1" parent="1">
          <mxGeometry x="80" y="390" width="80" height="80" as="geometry" />
        </mxCell>
        <mxCell id="vKYirCb9YRR1YGthw9EU-23" value="" style="edgeStyle=orthogonalEdgeStyle;rounded=0;orthogonalLoop=1;jettySize=auto;html=1;" edge="1" parent="1" source="vKYirCb9YRR1YGthw9EU-9" target="vKYirCb9YRR1YGthw9EU-22">
          <mxGeometry relative="1" as="geometry" />
        </mxCell>
        <mxCell id="vKYirCb9YRR1YGthw9EU-9" value="Hec bire bolunmur" style="shape=document;whiteSpace=wrap;html=1;boundedLbl=1;" vertex="1" parent="1">
          <mxGeometry x="-50" y="490" width="120" height="80" as="geometry" />
        </mxCell>
        <mxCell id="vKYirCb9YRR1YGthw9EU-27" value="" style="edgeStyle=orthogonalEdgeStyle;rounded=0;orthogonalLoop=1;jettySize=auto;html=1;entryX=0.076;entryY=0.064;entryDx=0;entryDy=0;entryPerimeter=0;" edge="1" parent="1" source="vKYirCb9YRR1YGthw9EU-11" target="vKYirCb9YRR1YGthw9EU-21">
          <mxGeometry relative="1" as="geometry">
            <mxPoint x="230" y="670" as="targetPoint" />
          </mxGeometry>
        </mxCell>
        <mxCell id="vKYirCb9YRR1YGthw9EU-11" value="Yalniz 7-ye bolunur" style="shape=document;whiteSpace=wrap;html=1;boundedLbl=1;" vertex="1" parent="1">
          <mxGeometry x="170" y="490" width="120" height="80" as="geometry" />
        </mxCell>
        <mxCell id="vKYirCb9YRR1YGthw9EU-16" value="" style="edgeStyle=orthogonalEdgeStyle;rounded=0;orthogonalLoop=1;jettySize=auto;html=1;" edge="1" parent="1" source="vKYirCb9YRR1YGthw9EU-13" target="vKYirCb9YRR1YGthw9EU-15">
          <mxGeometry relative="1" as="geometry" />
        </mxCell>
        <mxCell id="vKYirCb9YRR1YGthw9EU-39" value="FALSE" style="edgeLabel;html=1;align=center;verticalAlign=middle;resizable=0;points=[];" vertex="1" connectable="0" parent="vKYirCb9YRR1YGthw9EU-16">
          <mxGeometry x="-0.5227" y="-1" relative="1" as="geometry">
            <mxPoint as="offset" />
          </mxGeometry>
        </mxCell>
        <mxCell id="vKYirCb9YRR1YGthw9EU-18" value="" style="edgeStyle=orthogonalEdgeStyle;rounded=0;orthogonalLoop=1;jettySize=auto;html=1;" edge="1" parent="1" source="vKYirCb9YRR1YGthw9EU-13" target="vKYirCb9YRR1YGthw9EU-17">
          <mxGeometry relative="1" as="geometry" />
        </mxCell>
        <mxCell id="vKYirCb9YRR1YGthw9EU-40" value="TRUE" style="edgeLabel;html=1;align=center;verticalAlign=middle;resizable=0;points=[];" vertex="1" connectable="0" parent="vKYirCb9YRR1YGthw9EU-18">
          <mxGeometry x="-0.4918" y="3" relative="1" as="geometry">
            <mxPoint as="offset" />
          </mxGeometry>
        </mxCell>
        <mxCell id="vKYirCb9YRR1YGthw9EU-13" value="n % 7 == 0" style="rhombus;whiteSpace=wrap;html=1;" vertex="1" parent="1">
          <mxGeometry x="520" y="400" width="80" height="80" as="geometry" />
        </mxCell>
        <mxCell id="vKYirCb9YRR1YGthw9EU-31" value="" style="edgeStyle=orthogonalEdgeStyle;rounded=0;orthogonalLoop=1;jettySize=auto;html=1;" edge="1" parent="1" source="vKYirCb9YRR1YGthw9EU-15" target="vKYirCb9YRR1YGthw9EU-21">
          <mxGeometry relative="1" as="geometry" />
        </mxCell>
        <mxCell id="vKYirCb9YRR1YGthw9EU-15" value="Yalniz 3-e bolunur" style="shape=document;whiteSpace=wrap;html=1;boundedLbl=1;" vertex="1" parent="1">
          <mxGeometry x="350" y="490" width="120" height="80" as="geometry" />
        </mxCell>
        <mxCell id="vKYirCb9YRR1YGthw9EU-33" value="" style="edgeStyle=orthogonalEdgeStyle;rounded=0;orthogonalLoop=1;jettySize=auto;html=1;" edge="1" parent="1" source="vKYirCb9YRR1YGthw9EU-17" target="vKYirCb9YRR1YGthw9EU-32">
          <mxGeometry relative="1" as="geometry" />
        </mxCell>
        <mxCell id="vKYirCb9YRR1YGthw9EU-17" value="Her ikisine bolunur" style="shape=document;whiteSpace=wrap;html=1;boundedLbl=1;" vertex="1" parent="1">
          <mxGeometry x="660" y="490" width="120" height="80" as="geometry" />
        </mxCell>
        <mxCell id="vKYirCb9YRR1YGthw9EU-21" value="END" style="rounded=1;whiteSpace=wrap;html=1;" vertex="1" parent="1">
          <mxGeometry x="290" y="660" width="120" height="60" as="geometry" />
        </mxCell>
        <mxCell id="vKYirCb9YRR1YGthw9EU-25" value="" style="edgeStyle=orthogonalEdgeStyle;rounded=0;orthogonalLoop=1;jettySize=auto;html=1;" edge="1" parent="1" source="vKYirCb9YRR1YGthw9EU-22" target="vKYirCb9YRR1YGthw9EU-24">
          <mxGeometry relative="1" as="geometry" />
        </mxCell>
        <mxCell id="vKYirCb9YRR1YGthw9EU-22" value="" style="shape=waypoint;sketch=0;size=6;pointerEvents=1;points=[];fillColor=default;resizable=0;rotatable=0;perimeter=centerPerimeter;snapToPoint=1;" vertex="1" parent="1">
          <mxGeometry y="680" width="20" height="20" as="geometry" />
        </mxCell>
        <mxCell id="vKYirCb9YRR1YGthw9EU-24" value="" style="shape=waypoint;sketch=0;size=6;pointerEvents=1;points=[];fillColor=default;resizable=0;rotatable=0;perimeter=centerPerimeter;snapToPoint=1;" vertex="1" parent="1">
          <mxGeometry x="280" y="680" width="20" height="20" as="geometry" />
        </mxCell>
        <mxCell id="vKYirCb9YRR1YGthw9EU-28" style="edgeStyle=orthogonalEdgeStyle;rounded=0;orthogonalLoop=1;jettySize=auto;html=1;entryX=0.264;entryY=0.607;entryDx=0;entryDy=0;entryPerimeter=0;" edge="1" parent="1">
          <mxGeometry relative="1" as="geometry">
            <mxPoint x="230" y="670" as="sourcePoint" />
            <mxPoint x="230" y="670" as="targetPoint" />
          </mxGeometry>
        </mxCell>
        <mxCell id="vKYirCb9YRR1YGthw9EU-35" value="" style="edgeStyle=orthogonalEdgeStyle;rounded=0;orthogonalLoop=1;jettySize=auto;html=1;" edge="1" parent="1" source="vKYirCb9YRR1YGthw9EU-32" target="vKYirCb9YRR1YGthw9EU-34">
          <mxGeometry relative="1" as="geometry" />
        </mxCell>
        <mxCell id="vKYirCb9YRR1YGthw9EU-32" value="" style="shape=waypoint;sketch=0;size=6;pointerEvents=1;points=[];fillColor=default;resizable=0;rotatable=0;perimeter=centerPerimeter;snapToPoint=1;" vertex="1" parent="1">
          <mxGeometry x="710" y="680" width="20" height="20" as="geometry" />
        </mxCell>
        <mxCell id="vKYirCb9YRR1YGthw9EU-34" value="" style="shape=waypoint;sketch=0;size=6;pointerEvents=1;points=[];fillColor=default;resizable=0;rotatable=0;perimeter=centerPerimeter;snapToPoint=1;" vertex="1" parent="1">
          <mxGeometry x="400" y="680" width="20" height="20" as="geometry" />
        </mxCell>
      </root>
    </mxGraphModel>
  </diagram>
</mxfile>
